<svg xmlns="http://www.w3.org/2000/svg" viewBox="0 0 81.87 80"><title>Asset 3</title><g id="Layer_2" data-name="Layer 2"><g id="Layer_1-2" data-name="Layer 1"><path d="M50.46,63.64a17,17,0,0,1-3.72-.46c-13.8-5.66-23.26-14.91-29-28.3-1.51-6.35.66-9.55,4.63-12.7a5.58,5.58,0,0,1,3.43-.95l.63,0A3.9,3.9,0,0,1,30.5,24l2.24,7.76a3.78,3.78,0,0,1-1.48,4.17l-1.89,1.34a.3.3,0,0,0-.09.41A47.41,47.41,0,0,0,43.8,51.86a.32.32,0,0,0,.42-.08l1.37-1.85a4,4,0,0,1,4.27-1.45l7.94,2.19a3.84,3.84,0,0,1,2.87,4c0,.21,0,.41,0,.62a5.28,5.28,0,0,1-1,3.35c-2.53,3.05-5.09,5-9.19,5M26.71,22.25h-.22l-.66,0A4.69,4.69,0,0,0,23,23c-3.74,3-5.64,5.8-4.29,11.55,5.62,13,14.89,22.11,28.33,27.62,5.8,1.3,8.71-.56,11.73-4.22a4.42,4.42,0,0,0,.73-2.74c0-.21,0-.43,0-.64a2.79,2.79,0,0,0-2.08-2.91L49.56,49.5a2.84,2.84,0,0,0-3.1,1.05L45.09,52.4a1.41,1.41,0,0,1-1.85.37,48.62,48.62,0,0,1-14.9-14.55,1.34,1.34,0,0,1,.38-1.8l1.89-1.34a2.71,2.71,0,0,0,1.08-3l-2.24-7.76a2.83,2.83,0,0,0-2.75-2" style="fill:#007776"/><path d="M66.45,41.34a1.58,1.58,0,0,1-1.59-1.45,24.16,24.16,0,0,0-7.45-15.53,25.21,25.21,0,0,0-15.89-7.28,1.55,1.55,0,1,1,.21-3.1,28.43,28.43,0,0,1,17.93,8.18A27.23,27.23,0,0,1,68,39.69a1.52,1.52,0,0,1-.39,1.13,1.59,1.59,0,0,1-1.09.53h-.11M41.63,14.77a.76.76,0,0,0-.05,1.52A26,26,0,0,1,58,23.81a24.94,24.94,0,0,1,7.69,16,.78.78,0,0,0,1.36.45.74.74,0,0,0,.19-.55,26.45,26.45,0,0,0-8.13-17,27.6,27.6,0,0,0-17.41-7.95h-.05" style="fill:#007776"/><path d="M59.18,40.87a1.6,1.6,0,0,1-1-.39,1.53,1.53,0,0,1-.54-1.07,16.12,16.12,0,0,0-5-10.36A16.82,16.82,0,0,0,42,24.19a1.57,1.57,0,0,1-1.48-1.65,1.53,1.53,0,0,1,.54-1.07,1.57,1.57,0,0,1,1.15-.38,20,20,0,0,1,12.65,5.76,19.21,19.21,0,0,1,5.9,12.36,1.52,1.52,0,0,1-.39,1.13,1.59,1.59,0,0,1-1.09.53h-.11m-17.06-19a.79.79,0,0,0-.51.19.75.75,0,0,0-.26.52.77.77,0,0,0,.73.81,17.64,17.64,0,0,1,11.12,5.1A16.91,16.91,0,0,1,58.4,39.37a.76.76,0,0,0,.27.52.79.79,0,0,0,.56.19.78.78,0,0,0,.54-.26.74.74,0,0,0,.19-.55A18.41,18.41,0,0,0,54.3,27.41a19.22,19.22,0,0,0-12.13-5.53h-.05" style="fill:#007776"/><path d="M51.91,40.4a1.6,1.6,0,0,1-1-.38,1.53,1.53,0,0,1-.54-1.07,8.11,8.11,0,0,0-2.51-5.2A8.45,8.45,0,0,0,42.5,31.3a1.55,1.55,0,1,1,.21-3.1,11.66,11.66,0,0,1,7.37,3.35,11.17,11.17,0,0,1,3.43,7.2A1.57,1.57,0,0,1,52,40.39h-.11M42.6,29a.76.76,0,0,0-.05,1.52,9.27,9.27,0,0,1,5.84,2.68,8.89,8.89,0,0,1,2.74,5.71.75.75,0,0,0,.26.52.79.79,0,0,0,.56.19.77.77,0,0,0,.73-.81A10.38,10.38,0,0,0,49.5,32.1,10.84,10.84,0,0,0,42.65,29H42.6" style="fill:#007776"/><path d="M40.93,80C18.36,80,0,62.06,0,40S18.36,0,40.93,0,81.87,17.94,81.87,40,63.5,80,40.93,80m0-78.94C19,1.06,1.08,18.53,1.08,40S19,78.94,40.93,78.94,80.79,61.47,80.79,40,62.91,1.06,40.93,1.06" style="fill:#007776"/></g></g></svg>